<svg xmlns="http://www.w3.org/2000/svg" width="32" height="32" viewBox="0 0 32 32" fill="#FF516B"><g><g data-name="Light"><path d="M12,14H7.089A7.649,7.649,0,0,1,12.25,7.969a1,1,0,0,0-.5-1.938C7.581,7.107,5,11.524,5,15v6a3,3,0,0,0,3,3h4a3,3,0,0,0,3-3V17A3,3,0,0,0,12,14Zm1,7a1,1,0,0,1-1,1H8a1,1,0,0,1-1-1V16h5a1,1,0,0,1,1,1Zm11-7H19.089A7.649,7.649,0,0,1,24.25,7.969a1,1,0,0,0-.5-1.938C19.581,7.107,17,11.524,17,15v6a3,3,0,0,0,3,3h4a3,3,0,0,0,3-3V17A3,3,0,0,0,24,14Zm1,7a1,1,0,0,1-1,1H20a1,1,0,0,1-1-1V16h5a1,1,0,0,1,1,1Z"/></g></g></svg>